<svg style="height:512px;width:512px" version="1.1" viewBox="0 0 512 512" xmlns="http://www.w3.org/2000/svg"><path d="m347.9 258.53-68.125 3.033-56.967 78-1.25 1.718-1.875 1.033-65.313 35.03-28.47 117.19h345.25l-15-63.686-165.56-54.688 5.874-17.75 89.905 29.688-38.47-129.56z"/><path d="m178.81 147c-17.714 6.11-35.908 13.923-52.875 22.656l68.407 165.03 14.625-7.842 28.28-38.75-58.435-141.09z"/><g transform="matrix(-.063179 .15653 -.15824 -.058806 242.04 42.33)"><g transform="matrix(.1 0 0 -.1 0 501)"><path d="m6112.2 3262.9c-13.439 0-612.04-143.96-1336.6-319.58-886.52-211.38-1336.6-341.9-1395.2-400.44-103.64-103.64-1777.6-5531-1782.2-5774 0-153.07 35.989-207.05 301.58-481.53 171.06-171.06 360.12-324.13 422.99-337.57 81.09-22.55 891.08 207.05 2790.1 787.44 3087.1 940.5 3042.2 922.51 3118.8 1048.5 35.989 53.984 189.06 616.6 342.13 1246.6 153.07 630.04 297.02 1219.5 315.02 1305.2l45.1 157.62c-7.0031 1392.4-1388.4 2766.4-2821.7 2767.8zm1300.4-1516.6 791.99-801.1-315.02-1282.6c-171.06-706.57-328.46-1296.1-341.9-1309.5-31.434-31.434-4162.7-1300.6-4225.8-1300.6-17.995 0 468.09 504.08 1084.5 1120.7l1120.7 1120.4 279.03 17.995c481.53 31.434 760.56 324.13 760.56 805.43 9.1112 918.18-1305.2 1111.6-1597.6 233.93-27.106-85.417-40.545-225.05-27.106-305.91 22.55-139.4-22.55-189.06-1120.4-1287-630.04-630.04-1143-1129.6-1143-1116.1 0 53.984 1291.5 4225.8 1318.6 4252.7 27.106 31.434 2430.2 634.59 2551.6 643.48 35.989 4.7834 427.54-355.34 863.97-791.76z" stroke-width="2.2778"/></g></g></svg>
